<svg width="40" height="41" viewBox="0 0 40 41" fill="none" xmlns="http://www.w3.org/2000/svg">
    <path d="M26.9961 11.4424C26.9961 11.4424 28.8022 13.6146 29.5496 16.8465C30.297 20.0784 30.0279 22.4645 30.0279 22.4645M19.2671 23.6715L15.015 24.8576C12.8902 25.4504 10.7061 24.1376 10.1367 21.9254C9.56735 19.7131 10.8283 17.4393 12.9532 16.8465L17.2053 15.6604C17.4452 15.5934 17.6669 15.4692 17.8527 15.2977L20.9724 12.4176C21.6308 11.8098 22.6378 11.8728 23.2216 12.5582C23.3857 12.7509 23.5045 12.9807 23.5685 13.2294L25.9453 22.4645C26.1731 23.3494 25.6687 24.259 24.8187 24.4961C24.5798 24.5627 24.3293 24.5706 24.0869 24.5189L20.002 23.6487C19.7586 23.5968 19.507 23.6046 19.2671 23.6715Z" stroke="#030B4B" stroke-width="1.5" stroke-linecap="round" stroke-linejoin="round"/>
    <path d="M14 17L16.9587 27.5247C17.1092 28.0599 17.6673 28.3697 18.2011 28.2142L18.5163 28.1223C19.047 27.9677 19.3515 27.412 19.1964 26.8816L18.5 24.5" stroke="#030B4B" stroke-width="1.5" stroke-linecap="round" stroke-linejoin="round"/>
</svg>
