<svg width="40" height="41" viewBox="0 0 40 41" fill="none" xmlns="http://www.w3.org/2000/svg">
    <g clip-path="url(#clip0)">
        <path d="M13.4417 25.4342C14.5467 25.4342 15.4417 26.3292 15.4417 27.4342C15.4417 28.5392 14.5467 29.4342 13.4417 29.4342C12.3367 29.4342 11.4417 28.5392 11.4417 27.4342C11.4417 26.3292 12.3367 25.4342 13.4417 25.4342Z" stroke="#030B4B" stroke-width="1.5" stroke-linecap="round" stroke-linejoin="round"/>
        <path d="M28.36 26.6941C29.465 26.6941 30.36 27.5891 30.36 28.6941C30.36 29.7991 29.465 30.6941 28.36 30.6941C27.255 30.6941 26.36 29.7991 26.36 28.6941C26.36 27.5891 27.255 26.6941 28.36 26.6941Z" stroke="#030B4B" stroke-width="1.5" stroke-linecap="round" stroke-linejoin="round"/>
        <path d="M11.2153 16.6499C12.3203 16.6499 13.2153 17.5449 13.2153 18.6499C13.2153 19.7549 12.3203 20.6499 11.2153 20.6499C10.1103 20.6499 9.2153 19.7549 9.2153 18.6499C9.2153 17.5449 10.1103 16.6499 11.2153 16.6499Z" stroke="#030B4B" stroke-width="1.5" stroke-linecap="round" stroke-linejoin="round"/>
        <path d="M18.0317 9.2504C19.1367 9.2504 20.0317 10.1454 20.0317 11.2504C20.0317 12.3554 19.1367 13.2504 18.0317 13.2504C16.9267 13.2504 16.0317 12.3554 16.0317 11.2504C16.0317 10.1454 16.9267 9.2504 18.0317 9.2504Z" stroke="#030B4B" stroke-width="1.5" stroke-linecap="round" stroke-linejoin="round"/>
        <path d="M27.6918 12.0632C28.7968 12.0632 29.6918 12.9582 29.6918 14.0632C29.6918 15.1682 28.7968 16.0632 27.6918 16.0632C26.5868 16.0632 25.6918 15.1682 25.6918 14.0632C25.6918 12.9582 26.5868 12.0632 27.6918 12.0632Z" stroke="#030B4B" stroke-width="1.5" stroke-linecap="round" stroke-linejoin="round"/>
        <path d="M21.9049 19.9591C23.0099 19.9591 23.9049 20.8541 23.9049 21.9591C23.9049 23.0641 23.0099 23.9591 21.9049 23.9591C20.7999 23.9591 19.9049 23.0641 19.9049 21.9591C19.9049 20.8541 20.7999 19.9591 21.9049 19.9591Z" stroke="#030B4B" stroke-width="1.5" stroke-linecap="round" stroke-linejoin="round"/>
    </g>
    <defs>
        <clipPath id="clip0">
            <rect width="24" height="24" fill="white" transform="translate(8 8.49316)"/>
        </clipPath>
    </defs>
</svg>
