<svg width="40" height="41" viewBox="0 0 40 41" fill="none" xmlns="http://www.w3.org/2000/svg">
    <path d="M21.7678 19.4754C22.7441 20.4517 22.7441 22.0346 21.7678 23.0109C20.7915 23.9872 19.2085 23.9872 18.2322 23.0109C17.2559 22.0346 17.2559 20.4517 18.2322 19.4754C19.2085 18.4991 20.7915 18.4991 21.7678 19.4754Z" stroke="#030B4B" stroke-width="1.5" stroke-linecap="round" stroke-linejoin="round"/>
    <path d="M27.2538 13.4754C28.2302 14.4517 28.2302 16.0346 27.2538 17.0109C26.2775 17.9872 24.6946 17.9872 23.7183 17.0109C22.742 16.0346 22.742 14.4517 23.7183 13.4754C24.6946 12.4991 26.2775 12.4991 27.2538 13.4754" stroke="#030B4B" stroke-width="1.5" stroke-linecap="round" stroke-linejoin="round"/>
    <path d="M26 20.7432C27.533 20.7432 29 21.2762 30 22.0762" stroke="#030B4B" stroke-width="1.5" stroke-linecap="round" stroke-linejoin="round"/>
    <path d="M16.2818 13.4754C17.2581 14.4517 17.2581 16.0346 16.2818 17.0109C15.3055 17.9872 13.7226 17.9872 12.7463 17.0109C11.77 16.0346 11.77 14.4517 12.7463 13.4754C13.7226 12.4991 15.3055 12.4991 16.2818 13.4754" stroke="#030B4B" stroke-width="1.5" stroke-linecap="round" stroke-linejoin="round"/>
    <path d="M10 22.0762C11 21.2762 12.467 20.7432 14 20.7432" stroke="#030B4B" stroke-width="1.5" stroke-linecap="round" stroke-linejoin="round"/>
    <path d="M24.5911 28.2432C23.4261 27.3422 21.7521 26.7432 20.0001 26.7432C18.2481 26.7432 16.5741 27.3422 15.4091 28.2432" stroke="#030B4B" stroke-width="1.5" stroke-linecap="round" stroke-linejoin="round"/>
</svg>
