<svg width="40" height="41" viewBox="0 0 40 41" fill="none" xmlns="http://www.w3.org/2000/svg">
    <path d="M20 29.4932C15.029 29.4932 11 25.4642 11 20.4932C11 15.5222 15.029 11.4932 20 11.4932C24.971 11.4932 29 15.5222 29 20.4932" stroke="#030B4B" stroke-width="1.5" stroke-linecap="round" stroke-linejoin="round"/>
    <path d="M11.51 17.4932H28.38" stroke="#030B4B" stroke-width="1.5" stroke-linecap="round" stroke-linejoin="round"/>
    <path d="M11.51 23.4932H20" stroke="#030B4B" stroke-width="1.5" stroke-linecap="round" stroke-linejoin="round"/>
    <path d="M24 20.4932C24 17.7292 23.277 14.9652 21.833 12.5532C20.986 11.1402 19.014 11.1402 18.168 12.5532C15.278 17.3782 15.278 23.6092 18.168 28.4342C18.591 29.1402 19.296 29.4942 20.001 29.4942" stroke="#030B4B" stroke-width="1.5" stroke-linecap="round" stroke-linejoin="round"/>
    <path d="M27.244 25.8722L25.688 27.4282L24.755 26.4942" stroke="#030B4B" stroke-width="1.5" stroke-linecap="round" stroke-linejoin="round"/>
    <path d="M22.22 27.1451L22.751 27.8401L22.866 28.7051C22.93 29.1851 23.307 29.5631 23.787 29.6271L24.654 29.7431L25.348 30.2731C25.732 30.5671 26.266 30.5671 26.65 30.2731L27.345 29.7421H27.344L28.21 29.6271C28.69 29.5631 29.068 29.1861 29.132 28.7061L29.248 27.8391C29.248 27.8401 29.517 27.4881 29.779 27.1451C30.073 26.7611 30.073 26.2271 29.779 25.8431L29.248 25.1481L29.133 24.2831C29.069 23.8031 28.692 23.4251 28.212 23.3611L27.344 23.2461L26.65 22.7161C26.266 22.4221 25.732 22.4221 25.348 22.7161L24.653 23.2461H24.654L23.788 23.3601C23.308 23.4241 22.93 23.8011 22.866 24.2811L22.75 25.1481C22.75 25.1471 22.481 25.4991 22.219 25.8421C21.927 26.2271 21.927 26.7601 22.22 27.1451V27.1451Z" stroke="#030B4B" stroke-width="1.5" stroke-linecap="round" stroke-linejoin="round"/>
</svg>
