<svg width="40" height="41" viewBox="0 0 40 41" fill="none" xmlns="http://www.w3.org/2000/svg">
    <path d="M14.944 27.4932H13.056C12.473 27.4932 12 27.0202 12 26.4372V19.0492C12 18.4662 12.473 17.9932 13.056 17.9932H14.944C15.527 17.9932 16 18.4662 16 19.0492V26.4372C16 27.0202 15.527 27.4932 14.944 27.4932V27.4932Z" stroke="#030B4B" stroke-width="1.5" stroke-linecap="round" stroke-linejoin="round"/>
    <path d="M16 19.0651L19.649 14.3141C20.328 13.4291 21.654 13.4071 22.363 14.2681C22.628 14.5891 22.772 14.9931 22.772 15.4091V18.6801H25.868C26.469 18.6801 27.03 18.9801 27.364 19.4791L27.693 19.9701C27.988 20.4111 28.074 20.9601 27.927 21.4691L26.568 26.1911C26.346 26.9621 25.641 27.4931 24.839 27.4931H18.55C18.05 27.4931 17.572 27.2851 17.232 26.9191L16 25.5931" stroke="#030B4B" stroke-width="1.5" stroke-linecap="round" stroke-linejoin="round"/>
</svg>
