<svg width="40" height="41" viewBox="0 0 40 41" fill="none" xmlns="http://www.w3.org/2000/svg">
    <path d="M20.419 20.8932L22.286 20.5192V20.5192C22.556 20.4661 22.8043 20.3347 23 20.1412L28.452 14.6932V14.6932C29.1829 13.9619 29.1829 12.7766 28.452 12.0452V12.0452C27.7206 11.3143 26.5353 11.3143 25.804 12.0452L20.352 17.4932V17.4932C20.1571 17.6884 20.0242 17.9368 19.97 18.2072L19.6 20.0742V20.0742C19.5274 20.454 19.7764 20.8206 20.1561 20.8932C20.2429 20.9099 20.3321 20.9099 20.419 20.8932V20.8932Z" stroke="#030B4B" stroke-width="1.5" stroke-linecap="round" stroke-linejoin="round"/>
    <path d="M17.365 22.9172C20.489 26.0412 24.765 26.8332 26.91 24.6852C28.718 22.8772 28.437 19.5652 26.442 16.6992" stroke="#030B4B" stroke-width="1.5" stroke-linecap="round" stroke-linejoin="round"/>
    <path d="M23.84 14.0051C20.083 11.1151 15.385 10.7541 12.768 13.3711C9.83904 16.3001 10.631 21.8401 14.536 25.7451H14.536C16.2459 27.4831 18.3594 28.7708 20.688 29.4931" stroke="#030B4B" stroke-width="1.5" stroke-linecap="round" stroke-linejoin="round"/>
</svg>
