<svg width="40" height="41" viewBox="0 0 40 41" fill="none" xmlns="http://www.w3.org/2000/svg">
    <path d="M25 13.8102C25.925 13.6432 26.894 13.5462 27.956 13.5102C28.524 13.4912 29 13.9412 29 14.5092V26.3462C29 26.8882 28.567 27.3362 28.026 27.3442C24.934 27.3912 22.606 27.9612 20 29.4932C17.394 27.9612 15.066 27.3912 11.974 27.3452C11.433 27.3372 11 26.8882 11 26.3462V14.5092C11 13.9502 11.459 13.4912 12.017 13.5092C15.088 13.6082 17.406 14.1862 20 15.6392" stroke="#112244" stroke-width="1.5" stroke-linecap="round" stroke-linejoin="round"/>
    <path d="M25 23.7312V11.5052C25 10.7762 24.234 10.2672 23.583 10.5942C21.827 11.4742 20.347 13.2632 20 15.1052V29.4932C20.396 27.3942 22.261 25.3642 24.331 24.6692C24.733 24.5342 25 24.1552 25 23.7312V23.7312Z" stroke="#112244" stroke-width="1.5" stroke-linecap="round" stroke-linejoin="round"/>
</svg>
