<?xml version="1.0" standalone="no"?>
<!DOCTYPE svg PUBLIC "-//W3C//DTD SVG 20010904//EN"
 "http://www.w3.org/TR/2001/REC-SVG-20010904/DTD/svg10.dtd">
<svg version="1.0" xmlns="http://www.w3.org/2000/svg"
 width="928.000000pt" height="928.000000pt" viewBox="0 0 928.000000 928.000000"
 preserveAspectRatio="xMidYMid meet">
<metadata>
Created by potrace 1.11, written by Peter Selinger 2001-2013
</metadata>
<g transform="translate(0.000000,928.000000) scale(0.100000,-0.100000)"
fill="#000000" stroke="none">
<path d="M3808 8365 c-2 -1 -33 -5 -69 -8 -70 -6 -181 -32 -214 -50 -11 -6
-26 -12 -33 -13 -7 -1 -25 -10 -40 -20 -15 -10 -30 -17 -34 -16 -5 1 -8 -2 -8
-8 0 -5 -4 -10 -10 -10 -5 0 -18 -7 -27 -15 -10 -8 -49 -40 -88 -71 -38 -31
-90 -73 -115 -94 -50 -42 -168 -139 -226 -187 -22 -17 -50 -40 -64 -52 -14
-11 -29 -24 -35 -29 -51 -40 -181 -148 -185 -152 -3 -3 -41 -35 -85 -70 -44
-35 -96 -78 -115 -94 -20 -17 -56 -47 -80 -66 -24 -19 -52 -43 -62 -52 -10
-10 -21 -18 -24 -18 -4 0 -14 -8 -23 -18 -9 -9 -38 -35 -66 -56 -27 -22 -58
-47 -67 -55 -9 -9 -23 -20 -30 -26 -21 -16 -122 -99 -134 -110 -6 -5 -28 -23
-49 -40 -21 -16 -43 -34 -50 -40 -6 -5 -35 -30 -65 -55 -30 -25 -64 -52 -75
-61 -11 -9 -63 -52 -115 -95 -135 -110 -146 -122 -196 -190 -58 -81 -93 -161
-114 -264 -20 -100 -19 -143 4 -287 1 -7 5 -16 9 -19 4 -4 7 -14 7 -23 0 -9
23 -63 52 -121 28 -58 52 -107 53 -110 0 -3 28 -59 62 -125 33 -66 261 -519
506 -1008 245 -488 449 -893 454 -900 4 -6 8 -14 8 -17 1 -13 311 -626 320
-632 6 -4 7 -8 2 -8 -4 0 4 -18 17 -39 14 -21 22 -42 19 -45 -4 -3 -1 -6 5 -6
7 0 11 -3 10 -7 -1 -5 20 -51 47 -103 27 -52 49 -97 50 -100 1 -3 30 -61 65
-130 35 -69 78 -154 95 -190 16 -36 33 -70 37 -76 4 -5 79 -155 168 -331 88
-177 177 -343 197 -370 107 -142 246 -239 400 -278 50 -12 134 -26 168 -27 25
0 161 17 175 22 3 1 10 3 15 4 64 12 172 64 278 133 40 25 74 50 75 55 2 4 8
8 12 8 5 0 63 36 129 80 67 44 123 80 126 80 3 0 13 7 22 15 10 8 90 62 178
119 88 57 165 109 172 115 7 6 14 11 16 11 2 0 68 43 145 95 78 52 142 92 142
89 0 -3 12 7 27 21 15 14 30 25 34 25 6 0 466 302 486 320 7 5 24 15 38 22 14
6 25 15 25 20 0 4 5 8 10 8 9 0 138 83 312 201 31 22 61 39 66 39 6 0 12 4 14
8 4 12 95 72 107 72 6 0 11 5 11 10 0 6 6 10 14 10 8 0 16 3 18 8 2 4 35 27
73 52 39 25 75 49 80 53 6 4 60 40 120 80 61 39 268 175 460 302 193 127 365
240 383 250 17 11 32 23 32 27 0 4 4 8 10 8 5 0 64 36 129 80 66 44 125 80
131 80 5 0 10 4 10 8 0 5 12 15 28 23 15 8 29 16 32 19 3 3 45 32 93 64 201
132 307 289 333 491 6 50 6 168 -1 195 -4 14 -7 35 -8 48 -1 12 -4 22 -7 22
-4 0 -7 6 -7 13 0 10 -60 178 -83 232 -4 11 -18 47 -30 80 -12 33 -26 68 -31
77 -5 10 -9 22 -9 27 0 5 -8 26 -17 47 -9 22 -18 46 -19 54 -2 8 -10 31 -18
52 -9 21 -23 57 -32 81 -9 23 -20 51 -24 62 -5 11 -18 47 -30 80 -12 33 -26
69 -30 80 -5 11 -32 83 -60 160 -29 77 -62 167 -75 200 -12 33 -31 83 -40 110
-10 28 -22 55 -25 60 -4 6 -10 24 -14 40 -4 17 -13 44 -21 60 -14 32 -26 63
-31 80 -6 20 -185 498 -214 570 -68 174 -108 241 -194 329 -28 28 -73 67 -99
85 -56 38 -164 90 -203 97 -15 3 -35 9 -46 15 -10 5 -18 7 -18 3 0 -3 -6 -1
-13 5 -8 6 -17 8 -20 5 -3 -3 -12 -2 -19 2 -7 5 -18 9 -24 10 -6 1 -38 10 -70
19 -33 9 -66 18 -74 20 -8 2 -76 20 -150 40 -74 20 -146 39 -160 42 -14 2 -32
7 -40 10 -8 3 -24 8 -35 10 -27 6 -37 9 -55 16 -13 4 -107 29 -164 42 -38 9
-251 67 -276 75 -24 8 -82 22 -87 21 -2 0 -22 6 -45 15 -23 8 -53 16 -67 19
-14 3 -84 21 -156 40 -71 20 -137 37 -145 40 -8 2 -33 8 -55 13 -22 6 -82 22
-132 36 -51 14 -103 28 -115 30 -13 2 -51 13 -85 24 -35 11 -63 18 -63 16 0
-2 -18 3 -40 11 -22 8 -40 12 -40 8 0 -3 -7 0 -15 7 -8 7 -15 10 -15 7 0 -3
-15 -1 -32 4 -33 10 -199 56 -228 63 -8 2 -76 20 -150 40 -74 20 -142 38 -150
40 -45 11 -107 28 -120 33 -8 3 -22 7 -30 8 -27 5 -58 13 -137 36 -43 12 -85
23 -93 24 -8 1 -22 5 -30 8 -14 5 -60 16 -77 18 -5 1 -19 5 -32 10 -24 10
-188 38 -193 34z m157 -686 c83 -22 158 -42 167 -44 10 -2 62 -16 115 -30 54
-15 105 -29 113 -31 8 -2 40 -10 70 -19 30 -8 68 -17 84 -20 16 -3 33 -8 38
-11 8 -5 93 -28 140 -38 12 -3 57 -15 98 -26 105 -30 181 -50 199 -54 9 -2 23
-6 31 -9 8 -4 35 -11 60 -17 25 -6 50 -12 55 -14 6 -2 24 -6 40 -11 17 -4 86
-23 155 -42 69 -19 132 -36 141 -38 19 -4 461 -121 509 -135 86 -25 257 -71
275 -75 11 -2 38 -9 60 -15 22 -6 47 -12 55 -14 8 -2 42 -11 75 -20 165 -45
335 -90 375 -99 25 -6 47 -13 50 -16 3 -4 14 -7 25 -9 22 -3 50 -10 50 -12 0
-2 3 -2 60 -15 36 -7 46 -10 65 -18 8 -4 26 -8 39 -10 13 -2 30 -12 37 -22 8
-10 14 -15 15 -9 0 5 20 -45 45 -111 25 -66 65 -173 90 -238 25 -64 47 -123
48 -130 2 -6 8 -25 15 -42 7 -16 62 -163 123 -325 60 -162 113 -304 118 -315
5 -11 22 -56 39 -100 53 -143 134 -359 144 -385 6 -14 11 -29 13 -35 3 -15 64
-176 76 -205 6 -14 13 -29 14 -35 1 -5 14 -40 28 -77 57 -149 76 -203 76 -215
0 -7 -82 -66 -182 -132 -101 -66 -187 -123 -193 -128 -22 -18 -204 -135 -209
-134 -3 1 -14 -6 -23 -15 -26 -24 -394 -264 -404 -264 -5 0 -9 -4 -9 -10 0 -5
-5 -10 -11 -10 -6 0 -16 -6 -24 -12 -10 -11 -71 -51 -154 -103 -9 -5 -37 -25
-63 -42 -26 -18 -51 -33 -57 -33 -6 0 -11 -3 -11 -7 0 -5 -29 -26 -65 -48 -36
-22 -65 -43 -65 -48 0 -4 -4 -5 -10 -2 -5 3 -10 1 -10 -4 0 -6 -5 -11 -10 -11
-6 0 -16 -5 -23 -10 -7 -6 -82 -57 -168 -113 -86 -56 -165 -108 -175 -115 -11
-7 -32 -21 -49 -32 -16 -10 -35 -24 -42 -29 -7 -6 -17 -11 -23 -11 -5 0 -10
-4 -10 -10 0 -5 -4 -10 -10 -10 -11 0 -103 -62 -108 -72 -2 -5 -8 -8 -12 -8
-5 0 -52 -29 -105 -65 -53 -36 -99 -65 -101 -65 -2 0 -46 -29 -98 -65 -52 -36
-99 -65 -105 -65 -6 0 -11 -4 -11 -8 0 -5 -10 -14 -22 -21 -26 -13 -56 -32
-122 -78 -26 -18 -48 -33 -50 -33 -4 0 -410 -268 -423 -280 -7 -5 -24 -15 -38
-22 -14 -6 -25 -14 -25 -18 0 -4 -13 -13 -30 -20 -16 -7 -30 -16 -30 -20 0 -4
-11 -12 -25 -18 -14 -7 -31 -16 -38 -22 -7 -5 -79 -54 -162 -108 -82 -54 -170
-112 -194 -128 -24 -16 -51 -33 -60 -39 -8 -5 -37 -25 -64 -43 -62 -42 -105
-50 -133 -25 -11 10 -250 477 -531 1038 -281 561 -738 1472 -1015 2025 -276
553 -507 1008 -511 1011 -5 3 -9 10 -9 15 0 5 -9 26 -19 46 l-19 37 58 48 c31
26 59 50 62 53 3 3 28 23 55 45 28 22 55 44 61 50 7 5 20 17 30 25 196 159
310 255 312 261 2 5 8 9 13 9 5 0 17 8 27 18 10 9 38 33 62 52 24 19 60 49 79
65 20 17 42 35 49 40 7 6 21 17 30 25 9 9 40 33 67 55 28 22 52 42 55 45 4 5
321 266 355 292 31 25 250 206 310 257 12 9 43 35 71 57 67 53 83 66 101 86 9
9 20 15 25 12 4 -3 8 0 8 5 0 19 52 12 205 -30z"/>
</g>
</svg>
