<svg width="23" height="21" viewBox="0 0 23 21" fill="none" xmlns="http://www.w3.org/2000/svg"><g clip-path="url(#clip0)"><path d="M15.5 0.800049H6.39999L11.3 8.00005L15.5 0.800049Z" fill="#22CFFF"/><path d="M10.2 18.9L3.4 8H1L10.2 18.9Z" fill="#00A1FF"/><path d="M0.499994 7.5C0.399994 7.7 0.399994 7.9 0.399994 8H0.999994L5.19999 1L0.499994 7.5Z" fill="#50C1FF"/><path d="M11.3 20.1L0.999994 8H0.399994C0.399994 8.1 0.499994 8.3 0.599994 8.4L10.6 19.6L11.3 20.1Z" fill="#007BDF"/><path d="M3.99999 8.00005H11.3L6.39999 0.800049L3.39999 8.00005H3.99999Z" fill="#73E9FF"/><path d="M12.7 18.2L20.3 8H18.5L11.3 20.1L12.7 18.2Z" fill="#008BE7"/><path d="M20.3 8L12.7 18.2L11.2 20.1L11.8 19.6L22 8.3C22.1 8.2 22.1 8.1 22.1 8H20.3Z" fill="#0277D9"/><path d="M20.3 8.00005L17.4 1.00005C17.3 0.900049 17.1 0.800049 17 0.800049H15.5L18.5 8.00005H20.3Z" fill="#4AC1EF"/><path d="M3.4 8.00005L6.4 0.800049H5.6C5.4 0.800049 5.2 0.800049 5.1 1.00005L1 8.00005H3.4Z" fill="#4AD9FF"/><path d="M11.3 8.00005H18.5L15.5 0.800049L11.3 8.00005Z" fill="#05BAFF"/><path d="M18.5 8H11.3V20.1" fill="#01A6FE"/><path d="M11.2 20.1H11.3V8H3.39999L10.2 18.9L11.2 20.1Z" fill="#4FC7FF"/><path d="M22 7.40005L17.5 1.00005C17.5 1.00005 17.3 0.800049 17 0.800049C17 0.800049 17.2 0.900049 17.4 1.00005L20.3 8.00005H22.1C22.1 7.70005 22.1 7.60005 22 7.40005Z" fill="#0C96EA"/></g><defs><clipPath id="clip0"><path fill="#fff" d="M0 0H22.5V21H0z"/></clipPath></defs></svg>