<svg width="18" height="18" viewBox="0 0 18 18" fill="none" xmlns="http://www.w3.org/2000/svg"><path d="M13.25 16.75H8.875V16.75C4.52576 16.75 1 13.2242 1 8.875C1 4.52576 4.52576 1 8.875 1C13.2242 1 16.75 4.52576 16.75 8.875V10.1875C16.75 11.3956 15.7706 12.375 14.5625 12.375C13.3544 12.375 12.375 11.3956 12.375 10.1875V8.875C12.375 6.942 10.808 5.375 8.875 5.375V5.375C6.942 5.375 5.375 6.942 5.375 8.875C5.375 10.808 6.942 12.375 8.875 12.375C10.808 12.375 12.375 10.808 12.375 8.875" stroke="#1589CA" stroke-width="1.5" stroke-linecap="round" stroke-linejoin="round"/></svg>