<svg width="36" height="37" viewBox="0 0 36 37" fill="none" xmlns="http://www.w3.org/2000/svg"><path d="M18 32.2987C10.5435 32.2987 4.5 26.18 4.5 18.6307C4.5 11.0814 10.5435 4.96265 18 4.96265C25.4565 4.96265 31.5 11.0814 31.5 18.6307" stroke="#1589CA" stroke-width="1.75" stroke-linecap="round" stroke-linejoin="round"/><path d="M5.26501 14.0748H30.735" stroke="#1589CA" stroke-width="1.75" stroke-linecap="round" stroke-linejoin="round"/><path d="M5.26501 23.1868H18" stroke="#1589CA" stroke-width="1.75" stroke-linecap="round" stroke-linejoin="round"/><path d="M32.9999 33.8176L30.2054 30.9883" stroke="#1589CA" stroke-width="1.75" stroke-linecap="round" stroke-linejoin="round"/><path d="M27 23.1868C29.4855 23.1868 31.5 25.2263 31.5 27.7428C31.5 30.2592 29.4855 32.2988 27 32.2988C24.5145 32.2988 22.5 30.2592 22.5 27.7428C22.5 25.2263 24.5145 23.1868 27 23.1868" stroke="#1589CA" stroke-width="1.75" stroke-linecap="round" stroke-linejoin="round"/><path d="M24 18.6308C24 14.4332 22.9155 10.2356 20.7495 6.57254C19.479 4.42666 16.521 4.42666 15.252 6.57254C10.917 13.9001 10.917 23.3629 15.252 30.6905C15.8865 31.7627 16.944 32.3003 18.0015 32.3003" stroke="#1589CA" stroke-width="1.75" stroke-linecap="round" stroke-linejoin="round"/></svg>