<svg width="24" height="24" viewBox="0 0 24 24" fill="none" xmlns="http://www.w3.org/2000/svg"><circle cx="12" cy="12" r="10" fill="#94E9C5" stroke="#124" stroke-width="1.5" stroke-linecap="round" stroke-linejoin="round"/><path d="M7.24801 11.4337V15.4354" stroke="#124" stroke-width="1.5" stroke-linecap="round" stroke-linejoin="round"/><path fill-rule="evenodd" clip-rule="evenodd" d="M15.7515 10.4313H13.7007V8.73064C13.7007 8.15033 13.2305 7.67975 12.6502 7.6792H12.25C11.8984 7.6792 11.5725 7.86373 11.3917 8.1654L9.78402 10.8455C9.59745 11.1565 9.4989 11.5123 9.4989 11.8749V14.6851C9.4989 15.2376 9.9468 15.6855 10.4993 15.6855H14.6801C15.0148 15.6859 15.3276 15.5188 15.5134 15.2403L16.5839 13.6337C16.6935 13.4693 16.7519 13.2761 16.7519 13.0784V11.4318C16.7519 10.8792 16.304 10.4313 15.7515 10.4313Z" fill="#fff" stroke="#124" stroke-width="1.5" stroke-linecap="round" stroke-linejoin="round"/></svg>