<svg xmlns="http://www.w3.org/2000/svg" viewBox="0 0 512 341.3"><path fill="#6DA544" d="M0 0H512V341.3H0z"/><path fill="#FFDA44" d="M256 19.3L461.4 170.7 256 322 50.6 170.7z"/><circle fill="#FFF" cx="256" cy="170.7" r="86.5"/><g fill="#0052B4"><path d="M212.8,165.3c-15,0-29.5,2.3-43.2,6.5c0.6,47.2,39.1,85.3,86.4,85.3c29.3,0,55.2-14.6,70.8-36.9 C300.1,186.8,258.9,165.3,212.8,165.3z"/><path d="M340.9,187.2c1-5.4,1.6-10.9,1.6-16.6c0-47.8-38.7-86.5-86.5-86.5c-35.6,0-66.2,21.6-79.5,52.3 c11.7-2.4,23.8-3.7,36.2-3.7C263,132.8,308.4,153.7,340.9,187.2z"/></g></svg>