<svg xmlns="http://www.w3.org/2000/svg" viewBox="0 0 512 341.3"><path fill="#D80027" d="M0 0H512V341.3H0z"/><g fill="#FFDA44"><path d="M352.3 312.6L328 294.9 303.6 312.6 312.9 284 288.6 266.3 318.7 266.3 328 237.7 337.3 266.3 367.4 266.3 343 284z"/><path d="M415.9 120.9L391.5 138.6 400.8 167.2 376.5 149.5 352.1 167.2 361.4 138.6 337.1 120.9 367.2 120.9 376.5 92.3 385.8 120.9z"/><path d="M367.4 57.4L343 75 352.3 103.7 328 86 303.6 103.7 312.9 75 288.6 57.4 318.7 57.4 328 28.7 337.3 57.4z"/><path d="M415.9 204.4L391.5 222 400.8 250.7 376.5 233 352.1 250.7 361.4 222 337.1 204.4 367.2 204.4 376.5 175.7 385.8 204.4z"/></g><path fill="#FFDA44" d="M167.6 64.4L193.6 144.7 278.1 144.7 209.8 194.3 235.9 274.7 167.6 225 99.2 274.7 125.3 194.3 57 144.7 141.5 144.7z"/></svg>