<svg xmlns="http://www.w3.org/2000/svg" viewBox="0 0 513 342"><path fill="#FFF" d="M0 0H513V342H0z"/><path transform="rotate(-45.001 335.886 223.013)" d="M324.2 215.2H347.59999999999997V230.79999999999998H324.2z"/><path transform="rotate(-45.001 308.338 250.548)" d="M296.7 242.8H320.09999999999997V258.40000000000003H296.7z"/><path transform="rotate(-45.001 368.941 256.05)" d="M357.3 248.3H380.7V263.90000000000003H357.3z"/><path transform="rotate(-45.001 341.392 283.606)" d="M329.7 275.8H353.09999999999997V291.40000000000003H329.7z"/><path transform="rotate(-45.001 352.413 239.532)" d="M340.7 231.7H364.09999999999997V247.29999999999998H340.7z"/><path transform="rotate(-45.001 324.865 267.077)" d="M313.2 259.3H336.59999999999997V274.90000000000003H313.2z"/><path transform="rotate(-45.001 338.65 88.022)" d="M330.9 56.9H346.5V119.19999999999999H330.9z"/><path transform="rotate(-45.001 308.344 90.78)" d="M300.6 79.1H316.20000000000005V102.5H300.6z"/><path transform="rotate(-45.001 335.88 118.33)" d="M328.1 106.6H343.70000000000005V130H328.1z"/><path transform="rotate(-45.001 341.381 57.723)" d="M333.6 46H349.20000000000005V69.4H333.6z"/><path transform="rotate(-45.001 368.94 85.273)" d="M361.1 73.6H376.70000000000005V97H361.1z"/><path transform="rotate(-45.001 156.835 269.827)" d="M149 238.7H164.6V301H149z"/><path transform="rotate(-45.001 187.12 267.078)" d="M179.3 255.4H194.9V278.8H179.3z"/><path transform="rotate(-45.001 159.585 239.53)" d="M151.8 227.8H167.4V251.20000000000002H151.8z"/><path transform="rotate(-45.001 189.889 236.78)" d="M182.1 205.6H197.7V267.9H182.1z"/><path transform="rotate(-45.001 156.838 71.484)" d="M125.7 63.7H188V79.3H125.7z"/><path transform="rotate(-45.001 173.35 88.02)" d="M142.2 80.2H204.5V95.8H142.2z"/><path transform="rotate(-45.001 189.878 104.55)" d="M158.7 96.8H221V112.39999999999999H158.7z"/><circle fill="#D80027" cx="255.8" cy="170.7" r="62.3"/><path fill="#0052B4" d="M317.7,178.3c-9.6-25.4-44.3-25-61.8,1.3c-17.6,26.3-43.8,16.9-61.6,0.7c4.6,29.9,30.4,52.7,61.6,52.7	C287.7,233,313.9,209.1,317.7,178.3z"/></svg>