<svg xmlns="http://www.w3.org/2000/svg" viewBox="0 85.333 512 341.333"><path fill="#D80027" d="M341.334 85.33L170.666 85.33 0 85.33 0 426.662 170.666 426.662 341.334 426.662 512 426.662 512 85.33z"/><path fill="#6DA544" d="M0 85.333H170.663V426.66999999999996H0z"/><path fill="#FFF" d="M170.663 85.333H341.326V426.66999999999996H170.663z"/><path fill="#6DA544" d="M208,255.996c0,26.509,21.491,48,48,48s48-21.491,48-48v-16h-96V255.996z"/><path fill="#FF9811" d="M320,223.996h-48c0-8.836-7.164-16-16-16s-16,7.164-16,16h-48c0,8.836,7.697,16,16.533,16H208 c0,8.836,7.164,16,16,16c0,8.836,7.164,16,16,16h32c8.836,0,16-7.164,16-16c8.836,0,16-7.164,16-16h-0.533 C312.303,239.996,320,232.833,320,223.996z"/></svg>