<svg xmlns="http://www.w3.org/2000/svg" viewBox="0 85.333 512 341.333"><path fill="#FFF" d="M0 85.337H512V426.663H0z"/><path fill="#D80027" d="M0 85.337H512V256H0z"/><g fill="#FFF"><path d="M83.478,170.666c0-24.865,17.476-45.637,40.812-50.734c-3.587-0.784-7.308-1.208-11.13-1.208 c-28.688,0-51.942,23.254-51.942,51.941s23.255,51.942,51.942,51.942c3.822,0,7.543-0.425,11.13-1.208 C100.954,216.304,83.478,195.532,83.478,170.666z"/><path d="M150.261 122.435L153.945 133.772 165.866 133.772 156.221 140.779 159.905 152.116 150.261 145.11 140.616 152.116 144.301 140.779 134.656 133.772 146.577 133.772z"/><path d="M121.344 144.696L125.027 156.033 136.948 156.033 127.303 163.04 130.987 174.377 121.344 167.371 111.699 174.377 115.384 163.04 105.739 156.033 117.66 156.033z"/><path d="M179.178 144.696L182.862 156.033 194.783 156.033 185.138 163.04 188.822 174.377 179.178 167.371 169.534 174.377 173.219 163.04 163.574 156.033 175.495 156.033z"/><path d="M168.047 178.087L171.731 189.424 183.652 189.424 174.008 196.431 177.692 207.768 168.047 200.762 158.404 207.768 162.088 196.431 152.444 189.424 164.364 189.424z"/><path d="M132.474 178.087L136.157 189.424 148.078 189.424 138.434 196.431 142.118 207.768 132.474 200.762 122.83 207.768 126.514 196.431 116.87 189.424 128.79 189.424z"/></g></svg>