<svg xmlns="http://www.w3.org/2000/svg" viewBox="0 85.333 512 341.333"><path fill="#D80027" d="M0 85.331H512V426.668H0z"/><circle fill="#FFF" cx="256" cy="255.994" r="96"/><g fill="#D80027"><path d="M267.826 219.291L284.296 241.986 310.969 233.337 294.473 256.013 310.941 278.708 284.277 270.027 267.782 292.703 267.799 264.663 241.135 255.981 267.809 247.333z"/><path d="M277.818,312.724c-31.33,0-56.727-25.397-56.727-56.727s25.397-56.727,56.727-56.727 c9.769,0,18.96,2.47,26.985,6.819c-12.589-12.31-29.804-19.909-48.803-19.909c-38.558,0-69.818,31.259-69.818,69.818 s31.26,69.818,69.818,69.818c18.999,0,36.215-7.599,48.803-19.909C296.777,310.254,287.587,312.724,277.818,312.724z"/></g></svg>