<svg xmlns="http://www.w3.org/2000/svg" viewBox="0 0 513 342"><path fill="#FFF" d="M0 0H513V342H0z"/><g fill="#D80027"><path d="M0 0H513V38H0z"/><path d="M0 76H513V114H0z"/><path d="M0 152H513V190H0z"/><path d="M0 228H513V266H0z"/><path d="M0 304H513V342H0z"/></g><path fill="#2E52B2" d="M0 0H256.5V190H0z"/><g fill="#FFF"><path d="M47.8 141.9L43.8 129.1 39.5 141.9 26.3 141.9 37 149.6 33 162.4 43.8 154.5 54.5 162.4 50.3 149.6 61.2 141.9z"/><path d="M104.2 141.9L100.1 129.1 95.9 141.9 82.7 141.9 93.4 149.6 89.3 162.4 100.1 154.5 110.8 162.4 106.8 149.6 117.6 141.9z"/><path d="M160.6 141.9L156.4 129.1 152.4 141.9 138.9 141.9 149.8 149.6 145.6 162.4 156.4 154.5 167.3 162.4 163.1 149.6 173.9 141.9z"/><path d="M216.9 141.9L212.8 129.1 208.6 141.9 195.4 141.9 206.1 149.6 202.1 162.4 212.8 154.5 223.6 162.4 219.4 149.6 230.3 141.9z"/><path d="M100.1 78.3L95.9 91.1 82.7 91.1 93.4 99 89.3 111.6 100.1 103.8 110.8 111.6 106.8 99 117.6 91.1 104.2 91.1z"/><path d="M43.8 78.3L39.5 91.1 26.3 91.1 37 99 33 111.6 43.8 103.8 54.5 111.6 50.3 99 61.2 91.1 47.8 91.1z"/><path d="M156.4 78.3L152.4 91.1 138.9 91.1 149.8 99 145.6 111.6 156.4 103.8 167.3 111.6 163.1 99 173.9 91.1 160.6 91.1z"/><path d="M212.8 78.3L208.6 91.1 195.4 91.1 206.1 99 202.1 111.6 212.8 103.8 223.6 111.6 219.4 99 230.3 91.1 216.9 91.1z"/><path d="M43.8 27.7L39.5 40.3 26.3 40.3 37 48.2 33 60.9 43.8 53 54.5 60.9 50.3 48.2 61.2 40.3 47.8 40.3z"/><path d="M100.1 27.7L95.9 40.3 82.7 40.3 93.4 48.2 89.3 60.9 100.1 53 110.8 60.9 106.8 48.2 117.6 40.3 104.2 40.3z"/><path d="M156.4 27.7L152.4 40.3 138.9 40.3 149.8 48.2 145.6 60.9 156.4 53 167.3 60.9 163.1 48.2 173.9 40.3 160.6 40.3z"/><path d="M212.8 27.7L208.6 40.3 195.4 40.3 206.1 48.2 202.1 60.9 212.8 53 223.6 60.9 219.4 48.2 230.3 40.3 216.9 40.3z"/></g></svg>