<svg width="40" height="40" viewBox="0 0 40 40" fill="none" xmlns="http://www.w3.org/2000/svg"><rect y=".116" width="40" height="39.884" rx="6" fill="#0077B5"/><path d="M16.0079 16.0316V25.6419H12.8V16.0316H16.0079Z" fill="#fff"/><path d="M16.4089 12.9438C16.4089 13.8666 15.7123 14.6049 14.5937 14.6049H14.5732C13.4963 14.6049 12.8 13.8666 12.8 12.9438C12.8 12.0015 13.5175 11.2838 14.6149 11.2838C15.7123 11.2838 16.3881 12.0015 16.4089 12.9438Z" fill="#fff"/><path d="M28.0352 19.6791L28.035 25.1893H24.8273V20.0478C24.8273 18.7564 24.3631 17.8751 23.2018 17.8751C22.3156 17.8751 21.7877 18.4692 21.5558 19.043C21.471 19.2487 21.4502 19.5352 21.4502 19.8224V25.1896H18.2419C18.2419 25.1896 18.2842 16.4811 18.2419 15.5793H21.4502V16.9405C21.876 16.2861 22.6385 15.3534 24.3417 15.3534C26.4526 15.3534 28.0352 16.7272 28.0352 19.6791Z" fill="#fff"/></svg>