<svg width="24" height="24" viewBox="0 0 24 24" fill="none" xmlns="http://www.w3.org/2000/svg">
<path d="M8.39525 9.24688C8.40777 9.12813 8.36058 9.01075 8.26819 8.93083L7.32701 7.84272V7.68018H10.2494L12.5082 12.4345L14.4941 7.68018H17.28V7.84272L16.4752 8.58317C16.4059 8.63392 16.3715 8.71734 16.3858 8.79989V14.2405C16.3715 14.323 16.4059 14.4064 16.4752 14.4572L17.2611 15.1976V15.3602H13.3082V15.1976L14.1223 14.4391C14.2023 14.3624 14.2023 14.3398 14.2023 14.2224V9.8248L11.9388 15.3421H11.6329L8.9976 9.8248V13.5226C8.97563 13.678 9.02943 13.8346 9.14348 13.947L10.2023 15.1796V15.3421H7.19995V15.1796L8.25877 13.947C8.372 13.8344 8.42266 13.6768 8.39525 13.5226V9.24688Z" fill="white"/>
</svg>
