<svg width="40" height="40" viewBox="0 0 40 40" fill="none" xmlns="http://www.w3.org/2000/svg"><rect y=".116" width="40" height="39.884" rx="6" fill="#FF5700"/><path fill-rule="evenodd" clip-rule="evenodd" d="M31.2082 18.8214C31.2082 17.3957 30.0399 16.2357 28.6035 16.2357C27.9466 16.2357 27.3471 16.4807 26.8885 16.8806C25.2566 15.8399 23.099 15.1627 20.7097 15.0441L21.9661 11.102L25.3941 11.9033C25.4325 13.0517 26.3831 13.9751 27.5496 13.9751C28.74 13.9751 29.7087 13.0138 29.7087 11.8318C29.7087 10.6498 28.7398 9.68848 27.5496 9.68848C26.6848 9.68848 25.9395 10.1968 25.5947 10.9268L21.7428 10.0272C21.4877 9.9678 21.2284 10.1137 21.1503 10.3619L19.6629 15.0287C17.1191 15.0783 14.8113 15.7603 13.0818 16.8465C12.6283 16.4663 12.0429 16.2357 11.4047 16.2357C9.96833 16.236 8.80005 17.3957 8.80005 18.8214C8.80005 19.7292 9.27469 20.5272 9.98921 20.9883C9.9528 21.2198 9.93319 21.4544 9.93319 21.6917C9.93319 25.3684 14.4301 28.3598 19.9583 28.3598C25.486 28.3598 29.9834 25.3684 29.9834 21.6917C29.9834 21.4716 29.9666 21.2539 29.9353 21.0386C30.6954 20.5876 31.2082 19.764 31.2082 18.8214ZM27.4569 10.3865C28.0943 10.3865 28.6127 10.9014 28.6127 11.5341C28.6127 12.1668 28.0943 12.6815 27.4569 12.6815C26.8193 12.6815 26.3009 12.1668 26.3009 11.5341C26.3009 10.9014 26.8193 10.3865 27.4569 10.3865ZM11.1012 17.3665C10.2184 17.3665 9.50002 18.0798 9.50002 18.9562C9.50002 19.3986 9.68311 19.7987 9.97823 20.0871C10.3554 19.1602 11.024 18.3121 11.9176 17.5914C11.6779 17.4496 11.3994 17.3665 11.1012 17.3665ZM28.9438 21.6428C28.9438 24.77 24.896 27.3147 19.9219 27.3147C14.9471 27.3147 10.9001 24.7702 10.9001 21.6428C10.9001 21.5326 10.9062 21.4239 10.9159 21.3155C10.9462 20.9831 11.0236 20.658 11.1415 20.3431C11.4473 19.5266 12.034 18.7773 12.8353 18.1386C13.0918 17.9341 13.3696 17.7409 13.667 17.5607C15.2903 16.5771 17.495 15.9705 19.9219 15.9705C22.384 15.9705 24.6185 16.5943 26.2471 17.6032C26.5453 17.7874 26.8224 17.9851 27.0775 18.1942C27.847 18.8233 28.4095 19.5569 28.7062 20.3544C28.8231 20.6704 28.9005 20.9957 28.9295 21.3289C28.9384 21.4333 28.9438 21.5374 28.9438 21.6428ZM27.7007 17.6235C28.5937 18.3533 29.2609 19.21 29.6273 20.1465C29.9601 19.8553 30.1715 19.4302 30.172 18.9562C30.172 18.0795 29.4536 17.3665 28.5705 17.3665C28.2497 17.3665 27.9513 17.4615 27.7007 17.6235Z" fill="#fff"/><path d="M18.1878 20.3067C18.1878 19.4669 17.5018 18.7625 16.6557 18.7625C15.8098 18.7625 15.1003 19.4669 15.1003 20.3067C15.1003 21.1462 15.81 21.8279 16.6557 21.8279C17.5018 21.8269 18.1878 21.1462 18.1878 20.3067Z" fill="#fff"/><path d="M23.6582 18.7625C22.8123 18.7625 22.1006 19.4667 22.1006 20.3064C22.1006 21.1464 22.8123 21.8277 23.6582 21.8277C24.5044 21.8277 25.1909 21.1469 25.1909 20.3064C25.1904 19.4662 24.5044 18.7625 23.6582 18.7625Z" fill="#fff"/><path d="M23.2277 24.4924C22.6601 25.0551 21.7044 25.3284 20.3042 25.3284C20.2998 25.3284 20.296 25.3296 20.2919 25.3296C20.2876 25.3296 20.284 25.3284 20.28 25.3284C18.8795 25.3284 17.9235 25.0551 17.3567 24.4924C17.1609 24.2978 16.8431 24.2978 16.6473 24.4924C16.4512 24.6873 16.4512 25.0025 16.6473 25.1964C17.4115 25.9553 18.5999 26.3246 20.28 26.3246C20.2843 26.3246 20.2879 26.3231 20.2919 26.3231C20.296 26.3231 20.2998 26.3246 20.3042 26.3246C21.984 26.3246 23.1727 25.9553 23.9376 25.1969C24.1339 25.002 24.1339 24.6871 23.9381 24.4929C23.7418 24.2983 23.424 24.2983 23.2277 24.4924Z" fill="#fff"/></svg>