<svg width="40" height="40" viewBox="0 0 40 40" fill="none" xmlns="http://www.w3.org/2000/svg"><rect width="40" height="39.884" rx="19.942" fill="url(#paint0_linear)"/><path d="M10.6536 19.4414C12.3723 18.4645 14.2908 17.6491 16.0834 16.8296C19.1673 15.4873 22.2635 14.1682 25.3909 12.9402C25.9994 12.731 27.0927 12.5263 27.1999 13.4569C27.1412 14.774 26.8997 16.0835 26.7341 17.3929C26.3137 20.2725 25.8278 23.1423 25.3539 26.0124C25.1907 26.9684 24.0301 27.4633 23.2875 26.8515C21.5029 25.6076 19.7046 24.3757 17.9428 23.103C17.3656 22.4978 17.9008 21.6288 18.4162 21.1966C19.8861 19.7018 21.4449 18.4318 22.8379 16.8598C23.2137 15.9233 22.1034 16.7125 21.7372 16.9543C19.725 18.3853 17.762 19.9036 15.6404 21.1612C14.5568 21.7768 13.2937 21.2507 12.2105 20.9072C11.2393 20.4923 9.81613 20.0742 10.6535 19.4415L10.6536 19.4414Z" fill="#fff"/><defs><linearGradient id="paint0_linear" x1="15.002" y1="1.663" x2="5.051" y2="24.948" gradientUnits="userSpaceOnUse"><stop stop-color="#37AEE2"/><stop offset="1" stop-color="#1E96C8"/></linearGradient></defs></svg>