<svg width="40" height="40" viewBox="0 0 40 40" fill="none" xmlns="http://www.w3.org/2000/svg"><rect y=".116" width="40" height="39.884" rx="6" fill="#55ACEE"/><path d="M19.7458 15.901L19.7839 16.522L19.1481 16.446C16.8336 16.1545 14.8116 15.1659 13.0948 13.5056L12.2555 12.6818L12.0393 13.2902C11.5815 14.6463 11.874 16.0785 12.8277 17.0417C13.3364 17.574 13.2219 17.65 12.3445 17.3332C12.0393 17.2318 11.7722 17.1558 11.7468 17.1938C11.6578 17.2825 11.963 18.4358 12.2046 18.8921C12.5352 19.5258 13.2092 20.1468 13.9468 20.5144L14.5699 20.8059L13.8324 20.8185C13.1202 20.8185 13.0948 20.8312 13.1711 21.0974C13.4254 21.9212 14.4301 22.7957 15.5492 23.1759L16.3376 23.4421L15.6509 23.8476C14.6335 24.4306 13.4381 24.7602 12.2427 24.7855C11.6705 24.7982 11.2 24.8489 11.2 24.8869C11.2 25.0137 12.7514 25.7234 13.6543 26.0022C16.363 26.826 19.5804 26.4712 21.9967 25.0644C23.7135 24.0631 25.4302 22.0733 26.2314 20.1468C26.6638 19.1202 27.0962 17.2445 27.0962 16.3446C27.0962 15.7616 27.1343 15.6856 27.8465 14.9885C28.2661 14.5829 28.6604 14.1393 28.7367 14.0126C28.8638 13.7718 28.8511 13.7718 28.2025 13.9872C27.1216 14.3675 26.969 14.3168 27.5031 13.7464C27.8973 13.3409 28.3679 12.6058 28.3679 12.3903C28.3679 12.3523 28.1771 12.4157 27.9609 12.5297C27.732 12.6565 27.2233 12.8466 26.8418 12.9606L26.1551 13.1761L25.532 12.7579C25.1886 12.5297 24.7054 12.2762 24.451 12.2002C23.8025 12.0228 22.8105 12.0481 22.2256 12.2509C20.6359 12.8212 19.6313 14.2914 19.7458 15.901Z" fill="#fff"/></svg>