<svg width="40" height="40" viewBox="0 0 40 40" fill="none" xmlns="http://www.w3.org/2000/svg"><rect y=".116" width="40" height="39.884" rx="6" fill="red"/><path d="M29.9654 14.4092C29.7262 13.493 29.0214 12.7714 28.1264 12.5266C26.5045 12.0815 20.0001 12.0815 20.0001 12.0815C20.0001 12.0815 13.4957 12.0815 11.8737 12.5266C10.9787 12.7714 10.2739 13.493 10.0347 14.4092C9.6001 16.0699 9.6001 19.5348 9.6001 19.5348C9.6001 19.5348 9.6001 22.9996 10.0347 24.6603C10.2739 25.5766 10.9787 26.2981 11.8737 26.5431C13.4957 26.988 20.0001 26.988 20.0001 26.988C20.0001 26.988 26.5045 26.988 28.1264 26.5431C29.0214 26.2981 29.7262 25.5766 29.9654 24.6603C30.4001 22.9996 30.4001 19.5348 30.4001 19.5348C30.4001 19.5348 30.4001 16.0699 29.9654 14.4092Z" fill="#fff"/><path d="M17.7249 23.4235V16.9424L22.9249 20.183L17.7249 23.4235Z" fill="red"/></svg>