<svg width="40" height="40" viewBox="0 0 40 40" fill="none" xmlns="http://www.w3.org/2000/svg"><circle cx="20" cy="20" r="20" fill="red"/><path d="M29.582 15.2382C29.352 14.3571 28.6743 13.6634 27.8137 13.4279C26.2542 13 20 13 20 13C20 13 13.7458 13 12.1861 13.4279C11.3256 13.6634 10.6478 14.3571 10.4178 15.2382C10 16.8349 10 20.1666 10 20.1666C10 20.1666 10 23.4981 10.4178 25.095C10.6478 25.976 11.3256 26.6698 12.1861 26.9054C13.7458 27.3332 20 27.3332 20 27.3332C20 27.3332 26.2542 27.3332 27.8137 26.9054C28.6743 26.6698 29.352 25.976 29.582 25.095C30 23.4981 30 20.1666 30 20.1666C30 20.1666 30 16.8349 29.582 15.2382Z" fill="#fff"/><path d="M17.8125 23.9061V17.6743L22.8125 20.7903L17.8125 23.9061Z" fill="red"/></svg>