<svg width="40" height="40" viewBox="0 0 40 40" fill="none" xmlns="http://www.w3.org/2000/svg"><circle cx="20" cy="20" r="20" fill="#EEEAFF"/><path fill-rule="evenodd" clip-rule="evenodd" d="M18 13H24V14H25V15H26V16H27V19H30V20H31V21H32V23H31V24H30V25H27H26H17H15H12V24H11V22H12V21H15V16H16V15H17V14H18V13Z" fill="#8349B1"/><path fill-rule="evenodd" clip-rule="evenodd" d="M16 13H22V14H23V15H24V16H25V19H28V20H29V21H30V23H29V24H28V25H25H24H15H13H10V24H9V22H10V21H13V16H14V15H15V14H16V13Z" fill="#C078F8"/></svg>