<svg width="40" height="41" viewBox="0 0 40 41" fill="none" xmlns="http://www.w3.org/2000/svg"><circle cx="20" cy="20.488" r="20" fill="#DDE0F7"/><path d="M13 11C13 10.4477 13.4477 10 14 10H26C26.5523 10 27 10.4477 27 11V29C27 29.5523 26.5523 30 26 30H14C13.4477 30 13 29.5523 13 29V11Z" fill="#6EA5E6"/><path d="M11 11C11 10.4477 11.4477 10 12 10H24C24.5523 10 25 10.4477 25 11V29C25 29.5523 24.5523 30 24 30H12C11.4477 30 11 29.5523 11 29V11Z" fill="#85BDFF"/><path d="M13 13C13 12.4477 13.4477 12 14 12H22C22.5523 12 23 12.4477 23 13V27C23 27.5523 22.5523 28 22 28H14C13.4477 28 13 27.5523 13 27V13Z" fill="#fff"/></svg>