<svg width="40" height="41" viewBox="0 0 40 41" fill="none" xmlns="http://www.w3.org/2000/svg"><circle cx="20" cy="20.488" r="20" fill="#FFDCBB"/><path opacity=".5" d="M20 14C20 13.4477 20.4477 13 21 13H29C29.5523 13 30 13.4477 30 14V27C30 27.5523 29.5523 28 29 28H21C20.4477 28 20 27.5523 20 27V14Z" fill="#92B2D8"/><path d="M19 14C19 13.4477 19.4477 13 20 13H28C28.5523 13 29 13.4477 29 14V27C29 27.5523 28.5523 28 28 28H20C19.4477 28 19 27.5523 19 27V14Z" fill="#fff"/><path opacity=".5" d="M17 14C17 13.4477 17.4477 13 18 13H26C26.5523 13 27 13.4477 27 14V27C27 27.5523 26.5523 28 26 28H18C17.4477 28 17 27.5523 17 27V14Z" fill="#92B2D8"/><path d="M16 14C16 13.4477 16.4477 13 17 13H25C25.5523 13 26 13.4477 26 14V27C26 27.5523 25.5523 28 25 28H17C16.4477 28 16 27.5523 16 27V14Z" fill="#fff"/><path opacity=".5" d="M14 14C14 13.4477 14.4477 13 15 13H23C23.5523 13 24 13.4477 24 14V27C24 27.5523 23.5523 28 23 28H15C14.4477 28 14 27.5523 14 27V14Z" fill="#92B2D8"/><path d="M13 14C13 13.4477 13.4477 13 14 13H22C22.5523 13 23 13.4477 23 14V27C23 27.5523 22.5523 28 22 28H14C13.4477 28 13 27.5523 13 27V14Z" fill="#fff"/><path opacity=".5" d="M11 14C11 13.4477 11.4477 13 12 13H20C20.5523 13 21 13.4477 21 14V27C21 27.5523 20.5523 28 20 28H12C11.4477 28 11 27.5523 11 27V14Z" fill="#92B2D8"/><path d="M10 14C10 13.4477 10.4477 13 11 13H19C19.5523 13 20 13.4477 20 14V27C20 27.5523 19.5523 28 19 28H11C10.4477 28 10 27.5523 10 27V14Z" fill="#fff"/><rect x="16" y="15" width="2" height="2" rx=".5" fill="#1589CA"/><rect x="12" y="24" width="2" height="2" rx=".5" fill="#1589CA"/></svg>