<svg width="264" height="194" viewBox="0 0 264 194" fill="none" xmlns="http://www.w3.org/2000/svg"><path d="M228.794 35.8601L262.453 54.4924V175.903L228.794 162.079V35.8601Z" fill="#D7EBF5" stroke="#1589CA" stroke-width="2" stroke-linecap="square" stroke-linejoin="bevel"/><path d="M115.135 157.271L49.0833 165.515L126.759 188.525L263.054 175.071L230.583 162.426L115.135 157.271Z" fill="#fff" stroke="#1589CA" stroke-width="2" stroke-linecap="square" stroke-linejoin="bevel"/><path d="M115.135 157.271L49.0833 165.515L126.759 188.525L263.054 175.071L230.583 162.426L115.135 157.271Z" fill="#fff" stroke="#1589CA" stroke-width="2" stroke-linecap="square" stroke-linejoin="bevel"/><path d="M262.453 46.679V175.903L126.617 188.525V60.5029L262.453 46.679Z" fill="#D7EBF5" stroke="#1589CA" stroke-width="2" stroke-linecap="square" stroke-linejoin="bevel"/><path d="M116.4 35.8601L51.4873 43.1293V165.685L116.4 158.416V35.8601Z" fill="#D7EBF5" stroke="#1589CA" stroke-width="2" stroke-linecap="square" stroke-linejoin="bevel"/><path d="M49.6843 37.6633V165.685L127.219 188.524V60.5029L49.6843 37.6633Z" fill="#fff" stroke="#1589CA" stroke-width="2" stroke-linecap="square" stroke-linejoin="bevel"/><path d="M115.135 29.8499L49.0833 38.0941L126.759 61.104L263.054 46.679L230.583 35.0058L115.135 29.8499Z" fill="#fff" stroke="#1589CA" stroke-width="2" stroke-linecap="square" stroke-linejoin="bevel"/><mask id="mask0" maskUnits="userSpaceOnUse" x="51" y="28" width="207" height="32"><path d="M109.74 28.9012L51.6399 37.62L127.218 59.9019L257.754 46.0534L224.487 34.0572L109.74 28.9012Z" fill="#fff"/></mask><g mask="url(#mask0)"><path opacity=".5" d="M138.521 23.8396L117.001 38.2646L73.7261 44.275L151.142 73.1249L285.893 59.902V41.8708L254.521 28.6479L138.521 23.8396Z" fill="#1589CA"/></g><path d="M115.135 13.0208L49.0833 21.265L126.759 44.2749L263.054 30.821L230.583 18.1767L115.135 13.0208Z" fill="#fff" stroke="#1589CA" stroke-width="2" stroke-linecap="square" stroke-linejoin="bevel"/><path d="M115.135 1L49.0834 9.24428L126.759 32.2541L263.054 18.8003L230.583 6.15594L115.135 1Z" fill="#fff" stroke="#1589CA" stroke-width="2" stroke-linecap="square" stroke-linejoin="bevel"/><path d="M49.6843 27.4458V9.41455L127.219 32.2541V50.2853L49.6843 27.4458Z" fill="#fff" stroke="#1589CA" stroke-width="2" stroke-linecap="square" stroke-linejoin="bevel"/><path d="M262.453 37.0625V19.0312L127.218 32.2541V50.2854L262.453 37.0625Z" fill="#D7EBF5" stroke="#1589CA" stroke-width="2" stroke-linecap="square" stroke-linejoin="bevel"/><mask id="mask1" maskUnits="userSpaceOnUse" x="49" y="37" width="80" height="152"><path d="M50.8865 38.8656V166.286L127.219 187.924V60.5031L50.8865 38.8656Z" fill="#fff" stroke="#1589CA" stroke-width="2" stroke-linecap="square" stroke-linejoin="bevel"/></mask><g mask="url(#mask1)"><path opacity=".5" d="M100.065 119.613L71.2074 111.105" stroke="#F2A838" stroke-width="2" stroke-linecap="square" stroke-linejoin="bevel"/><path opacity=".5" d="M100.065 103.893L71.2074 95.3853" stroke="#F2A838" stroke-width="2" stroke-linecap="square" stroke-linejoin="bevel"/><path opacity=".5" d="M100.065 88.1729L71.2074 79.6654" stroke="#F2A838" stroke-width="2" stroke-linecap="square" stroke-linejoin="bevel"/><path opacity=".3" d="M106.182 148.048V203.945L57.4978 208.753L26.8447 199.136V143.841H26.2437L74.9279 138.431L106.182 148.048Z" fill="#1589CA"/></g><path d="M80.3373 187.924V131.426L49.6842 122.411V178.307L80.3373 187.924Z" fill="#fff" stroke="#1589CA" stroke-width="2" stroke-linecap="square" stroke-linejoin="bevel"/><path d="M1.60097 183.116V127.219L49.6842 122.411V179.509L1.60097 183.116Z" fill="#D7EBF5" stroke="#1589CA" stroke-width="2" stroke-linecap="square" stroke-linejoin="bevel"/><path d="M32.2541 192.732V136.835L80.9384 132.027V187.924L32.2541 192.732Z" fill="#D7EBF5" stroke="#1589CA" stroke-width="2" stroke-linecap="square" stroke-linejoin="bevel"/><path d="M32.2541 192.732V136.835L1.60107 127.82V183.116L32.2541 192.732Z" fill="#fff" stroke="#1589CA" stroke-width="2" stroke-linecap="square" stroke-linejoin="bevel"/><path d="M32.2541 136.835L1 127.82L49.6843 122.41L80.9384 132.027L32.2541 136.835Z" fill="#fff" stroke="#1589CA" stroke-width="2" stroke-linecap="square" stroke-linejoin="bevel"/></svg>