<svg width="281" height="203" viewBox="0 0 281 203" fill="none" xmlns="http://www.w3.org/2000/svg"><path d="M144.129 11.1691L89.3043 53.0236L153.776 169.84L266.904 101.538L239.953 37.3448L144.129 11.1691Z" fill="#D7EBF5" stroke="#1589CA" stroke-width="2" stroke-linecap="square" stroke-linejoin="bevel"/><path d="M149.256 160.39L135.471 168.703H153.923L167.43 160.389L149.256 160.39Z" fill="#D7EBF5"/><path d="M121.729 10.2986H144.125L143.941 12.2986L121.729 12.2986V10.2986Z" fill="#1589CA"/><path d="M217.685 36.1189H240.081L239.897 38.1189L217.685 38.1189V36.1189Z" fill="#1589CA"/><path d="M122.017 11.1691L67.1925 53.0236L131.665 169.84L244.792 101.538L217.841 37.3448L122.017 11.1691Z" fill="#fff" stroke="#1589CA" stroke-width="2" stroke-linecap="square" stroke-linejoin="bevel"/><path d="M244.394 100.531H266.79L266.606 102.531L244.394 102.531V100.531Z" fill="#1589CA"/><path d="M132.13 168.703H154.525L154.341 170.703L132.13 170.703V168.703Z" fill="#1589CA"/><path opacity=".5" d="M214.981 63.4431L198.496 58.6509C173.27 100.074 129.17 161.956 129.17 161.956C129.17 161.956 132.237 167.455 131.17 169.206L234.39 108.489L214.981 63.4431Z" fill="#1589CA"/><path d="M101.264 19.9844L46.4396 61.839L110.912 178.655L224.039 110.353L197.088 46.1601L101.264 19.9844Z" fill="#D7EBF5" stroke="#1589CA" stroke-width="2" stroke-linecap="square" stroke-linejoin="bevel"/><path d="M78.8645 19.1139H101.26L101.076 21.1139L78.8645 21.1139V19.1139Z" fill="#1589CA"/><path d="M174.724 45.1226H197.12L196.935 47.1226L174.724 47.1226V45.1226Z" fill="#1589CA"/><path d="M79.152 19.9844L24.3278 61.839L88.7998 178.655L201.927 110.353L174.976 46.1601L79.152 19.9844Z" fill="#fff" stroke="#1589CA" stroke-width="2" stroke-linecap="square" stroke-linejoin="bevel"/><path opacity=".5" d="M89.1636 43.8589L53.4109 71.1537L95.4553 147.333L169.229 102.791L151.654 60.929L89.1636 43.8589Z" stroke="#F2A838" stroke-width="2" stroke-linecap="square" stroke-linejoin="bevel"/><path d="M201.529 109.346H223.925L223.741 111.346L201.529 111.346V109.346Z" fill="#1589CA"/><path d="M89.265 177.519L114.721 177.519L111.477 179.519L89.265 179.519V177.519Z" fill="#1589CA"/><path d="M107.466 168.509L92.7139 177.477H111.166L124.673 169.163L107.466 168.509Z" fill="#D7EBF5"/><path d="M98.0228 172.32L121.42 172.32L118.438 174.32L98.0228 174.32V172.32Z" fill="#1589CA"/><path d="M101.102 21.1139H85.4631L174.193 45.0961H190.391L101.102 21.1139Z" fill="#fff"/></svg>