<svg width="99" height="28" viewBox="0 0 99 28" fill="none" xmlns="http://www.w3.org/2000/svg"><path d="M13.676 15.3457H24.2388L25.9161 13.6728L24.2388 12H13.676C13.4559 12 13.2379 12.0433 13.0346 12.1273C12.8313 12.2114 12.6465 12.3346 12.4909 12.49C12.3353 12.6453 12.2118 12.8297 12.1276 13.0327C12.0434 13.2356 12 13.4532 12 13.6728C12 13.8925 12.0434 14.1101 12.1276 14.313C12.2118 14.516 12.3353 14.7004 12.4909 14.8557C12.6465 15.0111 12.8313 15.1343 13.0346 15.2183C13.2379 15.3024 13.4559 15.3457 13.676 15.3457Z" fill="#000"/><path d="M13.86 6C9.52376 6 6 9.51297 6 13.8362C6 18.1595 9.52376 21.6732 13.86 21.6732H18.2402L21.5963 18.3275H13.86C11.3779 18.3275 9.35546 16.3109 9.35546 13.8362C9.35546 11.3623 11.3779 9.34568 13.86 9.34568H21.5963L18.2402 6H13.86ZM27.9021 21.6732V18.3275H25.3761L22.0199 21.6732H27.9021Z" fill="#000"/><path d="M4.11565 4.10305C1.45674 6.7443 0 10.258 0 13.9996C0 17.742 1.45674 21.2557 4.11565 23.8969C5.41708 25.2008 6.96423 26.2347 8.6679 26.9389C10.3716 27.6431 12.198 28.0037 14.042 28H28.084V24.6543H14.042C12.6384 24.6572 11.248 24.3834 9.95074 23.8485C8.65345 23.3136 7.47481 22.5282 6.4825 21.5373C5.48902 20.5488 4.7013 19.3739 4.16474 18.0803C3.62818 16.7866 3.35338 15.3998 3.35617 13.9996C3.35617 11.1558 4.46852 8.47926 6.4818 6.46267C7.47411 5.47181 8.65275 4.68638 9.95003 4.15147C11.2473 3.61657 12.6377 3.34273 14.0413 3.34568H28.084V0H14.042C10.2884 0 6.76537 1.45262 4.11565 4.10305Z" fill="#000"/><path d="M25.3555 9.34568H27.8814V6H22L25.3555 9.34568Z" fill="#000"/><path d="M47.3646 8.78242L48.0625 8.18387C46.6228 6.77501 44.7149 6 42.6754 6C40.4231 6 38.5067 6.73054 37.1292 8.11329C35.7333 9.52214 34.9745 11.5034 35.0007 13.6958C35.0091 15.7561 35.7078 17.6224 36.9609 18.9698C38.3391 20.4493 40.3171 21.2236 42.6747 21.2236C44.7156 21.2236 46.6228 20.4493 48.0625 19.0404L47.3823 18.3981C46.1377 19.5952 44.4235 20.282 42.6754 20.282C40.6176 20.282 38.9042 19.5952 37.7027 18.3007C36.6165 17.1205 36.0076 15.4745 35.99 13.6513C35.9808 11.6792 36.6434 9.92729 37.8533 8.71184C39.0364 7.5232 40.706 6.88936 42.6754 6.88936C44.4589 6.89783 46.1285 7.56697 47.3646 8.78242ZM51.0743 19.8853V13.8715H59.8968V12.9384H51.0743V6.97759H60.7977V6H50.0405V20.8629H60.5856V19.8853H51.0743ZM68.5241 13.2377L68.551 13.2024L73.6114 6H72.516L67.9591 12.3836L67.9061 12.4627L67.8445 12.3836L63.3138 6H62.193L67.2449 13.2024L67.271 13.2377L67.2449 13.273L61.7786 20.8629H63.0147L67.8445 14.0303L67.9068 13.9513L67.9598 14.0303L72.7911 20.8629H74.018L68.5517 13.273L68.5248 13.2377H68.5241Z" fill="#000"/><path d="M81.0045 6H80.0243V20.8629H81.0045V6ZM96.1595 8.0427C94.8258 6.70443 92.9625 6 90.7809 6C85.5883 6 83.2568 9.84753 83.2568 13.6605C83.2568 15.7117 83.9279 17.6047 85.1378 18.9966C86.4977 20.5544 88.4494 21.3824 90.7724 21.3824C93.0947 21.3824 95.0465 20.5636 96.4063 19.0136C97.6163 17.6315 98.2874 15.7469 98.2966 13.7042C98.3143 11.4505 97.5548 9.44309 96.1595 8.04341V8.0427ZM95.6737 18.336C94.4899 19.7095 92.7949 20.4316 90.7724 20.4316C88.7676 20.4316 87.0804 19.7095 85.8973 18.3353C84.8464 17.1212 84.2638 15.4653 84.2546 13.6781C84.2461 11.6877 84.8995 9.91812 86.1179 8.70337C87.2663 7.54932 88.8737 6.9423 90.7724 6.9423C92.8034 6.9423 94.5076 7.65519 95.6822 8.99347C96.733 10.2005 97.3165 11.8641 97.3165 13.6781C97.3165 15.4568 96.733 17.112 95.6737 18.336ZM75.7588 13.0584C75.5575 13.0584 75.3645 13.1382 75.2222 13.2802C75.0799 13.4223 75 13.6149 75 13.8158C75 14.0166 75.0799 14.2093 75.2222 14.3513C75.3645 14.4933 75.5575 14.5731 75.7588 14.5731C76.1739 14.5731 76.5183 14.2294 76.5183 13.8158C76.5183 13.4014 76.1739 13.0584 75.7588 13.0584Z" fill="#000"/></svg>