<svg xmlns="http://www.w3.org/2000/svg" width="126" height="125" viewBox="0 0 126 125" fill="none"><path d="M63 122C96.1371 122 123 95.1371 123 62C123 28.8629 96.1371 2 63 2C29.8629 2 3 28.8629 3 62C3 95.1371 29.8629 122 63 122Z" fill="#fff"/><path fill-rule="evenodd" clip-rule="evenodd" d="M63.2302 124.853C97.6819 124.853 125.61 96.9249 125.61 62.4734C125.61 28.0219 97.6819 0.0933838 63.2302 0.0933838C28.7787 0.0933838 0.850159 28.0219 0.850159 62.4734C0.850159 96.9249 28.7787 124.853 63.2302 124.853ZM38.2133 30.7961C37.473 30.7961 36.7728 31.1326 36.3106 31.7106L15.5171 57.7021C14.7413 58.6719 14.8189 60.0696 15.6968 60.9475L62.4819 107.732C63.4334 108.684 64.9764 108.684 65.9279 107.732L112.713 60.9475C113.592 60.0696 113.668 58.6719 112.892 57.7021L92.0999 31.7106C91.6373 31.1326 90.9375 30.7961 90.1963 30.7961H64.2048H38.2133ZM44.0381 56.7878L37.3876 38.1657L22.4898 56.7878H44.0381ZM58.2656 96.6241L23.3026 61.6611H45.7787L58.2656 96.6241ZM64.2048 98.765L50.9537 61.6611H64.2048H77.456L64.2048 98.765ZM70.1442 96.6241L82.6301 61.6611H105.108L70.1442 96.6241ZM84.3726 56.7878H105.92L91.0227 38.1657L84.3726 56.7878ZM68.6681 35.6696H86.7389L80.285 53.7402L68.6681 35.6696ZM64.2048 37.7389L76.4506 56.7878H64.2048H51.9592L64.2048 37.7389ZM59.7415 35.6696L48.1248 53.7402L41.6709 35.6696H59.7415Z" fill="#08C"/></svg>