<svg width="40" height="40" viewBox="0 0 40 40" fill="none" xmlns="http://www.w3.org/2000/svg"><circle cx="20" cy="20" r="20" fill="#F3FCEF"/><path d="M19.3125 25.1616H21.3027V26.4945H19.3125V25.1616Z" fill="#73B034"/><path fill-rule="evenodd" clip-rule="evenodd" d="M30 18.0076C30 18.5599 29.5523 19.0076 29 19.0076H11C10.4477 19.0076 10 18.5599 10 18.0076C10 17.4553 10.4477 17.0076 11 17.0076H29C29.5523 17.0076 30 17.4553 30 18.0076Z" fill="#A0DB63"/><path fill-rule="evenodd" clip-rule="evenodd" d="M30.0001 17.9924C30.0001 18.5447 29.5523 18.9924 29.0001 18.9924H22.1802C21.6279 18.9924 21.1802 18.5447 21.1802 17.9924C21.1802 17.4401 21.6279 16.9924 22.1802 16.9924H29.0001C29.5523 16.9924 30.0001 17.4401 30.0001 17.9924Z" fill="#73B034"/><path d="M17.5763 12.5C17.4565 12.4993 17.3437 12.5662 17.2709 12.6812L14.3297 17.541C14.2131 17.7252 14.2257 17.9869 14.3593 18.1561L21.0052 26.3538C21.1582 26.5474 21.4115 26.5489 21.563 26.3571L28.1432 18.2377C28.2755 18.0701 28.2861 17.8085 28.168 17.6229L25.1902 12.7281C25.1164 12.6122 25.0031 12.544 24.8833 12.5433L17.5763 12.5Z" fill="#73B034"/><path d="M15.5763 12.5C15.4565 12.4993 15.3437 12.5662 15.2709 12.6812L12.3297 17.541C12.2131 17.7252 12.2257 17.9869 12.3593 18.1561L19.0052 26.3538C19.1582 26.5474 19.4115 26.5489 19.563 26.3571L26.1432 18.2377C26.2755 18.0701 26.2861 17.8085 26.168 17.6229L23.1902 12.7281C23.1164 12.6122 23.0031 12.544 22.8833 12.5433L15.5763 12.5Z" fill="#A0DB63"/><path d="M21.4901 17.0515L18.6901 20.5515L17.2901 19.1515" stroke="#fff" stroke-width="1.5" stroke-linecap="round" stroke-linejoin="round"/></svg>