<svg width="19" height="14" viewBox="0 0 19 14" fill="none" xmlns="http://www.w3.org/2000/svg"><path d="M1.625 13.75V13.75C1.625 11.8171 3.19212 10.25 5.125 10.25H8.625C10.5579 10.25 12.125 11.8171 12.125 13.75V13.75" stroke="#323232" stroke-width="1.5" stroke-linecap="round" stroke-linejoin="round"/><path d="M13 2.06958C14.2084 2.06958 15.1875 3.04871 15.1875 4.25708C15.1875 5.46546 14.2084 6.44458 13 6.44458" stroke="#323232" stroke-width="1.5" stroke-linecap="round" stroke-linejoin="round"/><path d="M8.9793 2.37161C10.1415 3.53376 10.1415 5.41799 8.9793 6.58013C7.81716 7.74228 5.93293 7.74228 4.77078 6.58013C3.60863 5.41799 3.60863 3.53376 4.77078 2.37161C5.93293 1.20946 7.81716 1.20946 8.9793 2.37161" stroke="#323232" stroke-width="1.5" stroke-linecap="round" stroke-linejoin="round"/><path d="M13.875 9.375C15.8079 9.375 17.375 10.9421 17.375 12.875V12.875" stroke="#323232" stroke-width="1.5" stroke-linecap="round" stroke-linejoin="round"/></svg>